<svg xmlns="http://www.w3.org/2000/svg" width="16" height="16" fill="none"><g fill="#EC3535" clip-path="url(#a)"><path d="M13 5H3a.333.333 0 0 0-.333.333v9.334A1.333 1.333 0 0 0 4 16h8a1.334 1.334 0 0 0 1.333-1.333V5.333A.333.333 0 0 0 13 5Zm-6.167 8.667a.5.5 0 1 1-1 0v-6a.5.5 0 0 1 1 0v6Zm3.334 0a.5.5 0 1 1-1 0v-6a.5.5 0 0 1 1 0v6ZM14.667 2.667H11.5a.167.167 0 0 1-.167-.167v-.833A1.667 1.667 0 0 0 9.667 0H6.333a1.667 1.667 0 0 0-1.666 1.667V2.5a.167.167 0 0 1-.167.167H1.333a.667.667 0 1 0 0 1.333h13.334a.667.667 0 1 0 0-1.333ZM6 2.5v-.833a.333.333 0 0 1 .333-.334h3.334a.333.333 0 0 1 .333.334V2.5a.167.167 0 0 1-.167.167H6.167A.167.167 0 0 1 6 2.5Z"/></g><defs><clipPath id="a"><path fill="#fff" d="M0 0h16v16H0z"/></clipPath></defs></svg>