<svg xmlns="http://www.w3.org/2000/svg" width="16" height="16" fill="none"><g clip-path="url(#a)" opacity=".65"><path d="M10.791 2.34a.343.343 0 0 0-.471 0L2.711 9.95a.333.333 0 0 0 0 .47l2.854 2.854a.333.333 0 0 0 .471 0l7.609-7.607a.333.333 0 0 0 0-.472L10.79 2.341ZM2 11.14a.333.333 0 0 0-.552.133l-1.427 4.28a.334.334 0 0 0 .422.422l4.28-1.426a.332.332 0 0 0 .133-.552L2 11.14ZM15.312.678a2.409 2.409 0 0 0-3.325 0l-.475.475a.333.333 0 0 0 0 .472l2.853 2.853a.333.333 0 0 0 .47 0L15.313 4a2.353 2.353 0 0 0 0-3.322Z"/></g><defs><clipPath id="a"><path d="M0 0h16v16H0z"/></clipPath></defs></svg>