<svg xmlns="http://www.w3.org/2000/svg" width="181" height="180" fill="none"><path fill="url(#a)" d="M158.72 153.129c-3.625 3.816-7.054 6.276-9.764 8.221-31.851 22.852-69.539 16.191-77.549 14.564-11.828-2.402-34.69-7.046-51.22-26.486C-4.822 120.02-.928 73.687 18.47 43.1c3.547-5.593 22.29-36.643 60.385-41.625 23.054-3.013 49.927 3.064 69.388 19.369 40.851 34.23 37.943 103.37 10.476 132.285Z"/><path fill="#BDD0FB" d="M2.348 174.036H79.41v-15.423H2.348c1.651 0 1.651 15.423 0 15.423Z"/><path fill="url(#b)" d="M79.41 170.177v-7.059c0-2.488-1.523-4.505-3.402-4.505H2.675A2.677 2.677 0 0 1 0 155.938a.816.816 0 0 1 .813-.813H80.96c1.838 0 4.757 2.893 4.757 6.455v9.858c0 3.361-2.833 6.085-4.564 6.085H1.234a1.234 1.234 0 0 1-1.14-.762 1.229 1.229 0 0 1-.094-.472 2.252 2.252 0 0 1 2.25-2.253h74.246c1.609 0 2.914-1.728 2.914-3.859Z"/><path fill="url(#c)" d="M77.272 161.996H5.018a.221.221 0 0 1-.147-.068.22.22 0 0 1 0-.301.217.217 0 0 1 .147-.068h72.257a.218.218 0 0 1 0 .437h-.003Z"/><path fill="url(#d)" d="M77.272 164.285H5.018a.218.218 0 0 1 0-.437h72.257a.22.22 0 0 1 .147.369.217.217 0 0 1-.147.068h-.003Z"/><path fill="url(#e)" d="M77.272 166.574H5.018a.217.217 0 0 1-.147-.068.217.217 0 0 1 0-.3.217.217 0 0 1 .147-.068h72.257a.217.217 0 0 1 .147.068.216.216 0 0 1 0 .3.217.217 0 0 1-.147.068h-.003Z"/><path fill="url(#f)" d="M77.272 168.863H5.018a.217.217 0 0 1-.147-.068.217.217 0 0 1 0-.3.217.217 0 0 1 .147-.068h72.257a.217.217 0 0 1 .147.068.216.216 0 0 1 0 .3.217.217 0 0 1-.147.068h-.003Z"/><path fill="url(#g)" d="M77.272 171.153H5.018a.218.218 0 0 1 0-.436h72.257a.218.218 0 0 1 0 .436h-.003Z"/><path fill="#7D97F4" d="M75.063 138.183H12.916a4.385 4.385 0 0 0-4.385 4.385v8.348a4.386 4.386 0 0 0 4.385 4.386h62.147a4.386 4.386 0 0 0 4.386-4.386v-8.348a4.385 4.385 0 0 0-4.386-4.385Z"/><path fill="url(#h)" d="M63.569 153.334h7.4a.465.465 0 0 0 .466-.465v-12.253a.465.465 0 0 0-.465-.465h-7.401a.465.465 0 0 0-.465.465v12.253c0 .257.208.465.465.465Z"/><path fill="url(#i)" d="M58.987 153.334h2.655c.13 0 .236-.105.236-.235v-12.712a.236.236 0 0 0-.236-.236h-2.655a.236.236 0 0 0-.236.236v12.712c0 .13.106.235.236.235Z"/><path fill="#BDD0FB" d="M73.256 95.18S55.866 34.33 24.134 2.151C22-.012 18.321 1.029 17.654 3.991 13.19 23.809 5.627 83.649 73.255 95.18Z"/><path fill="url(#j)" d="M66.944 91.494a.168.168 0 0 1-.206.264c-6.424-4.336-31.483-25.94-42.422-70.779a.117.117 0 1 1 .224-.069c3.496 10.35 17.594 48.458 42.404 70.584Z"/><path fill="#91B3FA" d="M87.13 140.58S53.05 71.452 8.025 39.8C4.998 37.673.815 39.72.66 43.416-.374 68.134 3.584 141.483 87.13 140.58Z"/><path fill="#BDD0FB" d="M78.766 137.537a.204.204 0 0 1-.189.361c-8.641-3.798-43.37-24.231-66.236-75.577-.073-.166.166-.29.253-.129 6.441 11.638 31.629 54.23 66.172 75.345Z"/><path fill="#7D97F4" d="M28.224 12.279a3.42 3.42 0 0 1 3.862-3.431c13.682 1.782 60.727 7.272 99.584 4.086a3.165 3.165 0 0 1 3.101 1.753c.186.379.295.79.32 1.212l8.508 145.763a3.642 3.642 0 0 1-3.399 3.845c-16.344 1.053-83.655 5.143-107.683 2.753a2.884 2.884 0 0 1-2.595-2.84L28.224 12.279Z"/><path fill="#BDD0FB" d="M29.854 15.922a3.292 3.292 0 0 1 3.715-3.302c13.167 1.716 58.441 7 95.835 3.933a3.043 3.043 0 0 1 3.292 2.853l8.188 140.275a3.504 3.504 0 0 1-3.271 3.7c-15.728 1.013-80.504 4.95-103.628 2.649a2.779 2.779 0 0 1-2.497-2.733L29.854 15.922Z"/><path fill="#fff" d="m42.09 26.679 1.554 30.075a1.912 1.912 0 0 0 1.865 1.814c5.571.128 22.934.461 32.733-.1a2.138 2.138 0 0 0 2.012-2.076c.158-5.642.481-22.065-.84-28.922a2.41 2.41 0 0 0-2.297-1.948l-32.935-.98a2.033 2.033 0 0 0-2.092 2.137Z" opacity=".78"/><path fill="url(#k)" d="M67.539 37.822a6.466 6.466 0 1 0-12.896-.983 6.466 6.466 0 0 0 12.896.983Z"/><path fill="url(#l)" d="m51.37 56.37 20.603-.107c1.263-.007 2.013-1.405 1.327-2.466-1.764-2.73-5.446-6.733-11.786-6.519-6.107.207-9.714 3.857-11.522 6.475-.767 1.11.03 2.626 1.379 2.617Z"/><path fill="#fff" d="M124.632 28.864a.989.989 0 0 0 .995-1.014 1.078 1.078 0 0 0-1.064-1.022l-36.4-.46c-.566-.006-.874.424-.683.957l.273.76c.193.533.81.964 1.376.964l35.503-.185ZM88.192 31.978c-.566-.007-.873.423-.682.957l.272.76c.193.533.81.963 1.377.963l35.502-.184a.989.989 0 0 0 .995-1.014 1.083 1.083 0 0 0-1.064-1.023l-36.4-.459ZM88.222 37.668c-.566-.008-.874.423-.683.956l.272.76c.193.533.81.964 1.377.964l35.503-.184a.985.985 0 0 0 .995-1.015 1.088 1.088 0 0 0-1.064-1.022l-36.4-.46ZM128.341 67.582a.944.944 0 0 0 .958-1.013c-.04-.555-.535-1.01-1.102-1.012l-84.886-.227c-.566 0-.739.358-.385.799l.875 1.088c.355.441 1.11.8 1.675.797l82.865-.432ZM43.34 70.937c-.566 0-.739.358-.385.8l.876 1.088c.355.44 1.108.8 1.675.797l82.864-.431a.948.948 0 0 0 .958-1.015c-.04-.555-.535-1.01-1.102-1.011l-84.885-.228ZM43.151 80.303c2.033-.166 5.842-.257 7.938-.299a1.9 1.9 0 0 1 1.884 1.444c.413 1.675.986 4.585.933 7.672a1.687 1.687 0 0 1-1.694 1.661l-7.739-.043a1.858 1.858 0 0 1-1.838-1.676l-.718-7.275a1.353 1.353 0 0 1 1.234-1.484ZM57.332 83.212c-.566-.02-.958.42-.871.98l.238 1.53a1.238 1.238 0 0 0 1.188 1.013l19.079-.1a1.017 1.017 0 0 0 1.01-1.034l-.01-.605a1.102 1.102 0 0 0-1.047-1.067l-19.587-.717ZM85.303 80.084c2.034-.166 5.842-.257 7.938-.299a1.9 1.9 0 0 1 1.884 1.443c.413 1.676.987 4.586.933 7.673a1.687 1.687 0 0 1-1.694 1.66l-7.738-.042a1.858 1.858 0 0 1-1.839-1.676l-.718-7.275a1.35 1.35 0 0 1 1.234-1.484ZM99.484 82.993c-.566-.02-.958.42-.87.98l.237 1.53a1.238 1.238 0 0 0 1.188 1.012l19.079-.1a1.017 1.017 0 0 0 1.011-1.034l-.01-.604a1.105 1.105 0 0 0-1.048-1.067l-19.587-.717Z" opacity=".6"/><path fill="#fff" d="M54.218 109.126h-.02l-7.14-.032c-1.02-.004-1.864-.702-1.967-1.621l-.659-5.987a1.306 1.306 0 0 1 .303-.981 1.565 1.565 0 0 1 1.093-.545c.601-.044 1.448-.12 2.345-.202 1.887-.17 4.236-.385 5.558-.406.96-.01 1.777.553 2.007 1.388.379 1.373.36 3.977.303 6.75-.021.901-.835 1.631-1.823 1.636Zm-8.353-8.619a1.013 1.013 0 0 0-.707.349.748.748 0 0 0-.18.569l.66 5.987c.07.643.683 1.131 1.424 1.135l7.14.031h.014c.692-.004 1.263-.494 1.275-1.099.055-2.732.075-5.291-.284-6.593-.162-.584-.772-.988-1.468-.986-1.303.023-3.641.234-5.52.404-.9.082-1.747.158-2.354.203Z"/><path fill="#fff" d="M46.636 101.122c1.5-.111 4.757-.459 6.304-.486.655-.011 1.232.381 1.388.948.305 1.102.276 3.302.235 5.332-.012.608-.568 1.096-1.25 1.093l-5.706-.026c-.701 0-1.285-.478-1.355-1.101l-.527-4.785c-.054-.495.356-.935.911-.975ZM60.468 105.116a1.777 1.777 0 0 0 1.736 1.311l66.057-.907a1.338 1.338 0 0 0 1.331-1.35 1.338 1.338 0 0 0-1.35-1.331l-66.063.043a1.776 1.776 0 0 0-1.407.695 1.771 1.771 0 0 0-.303 1.539Z" opacity=".6"/><path fill="#fff" d="M54.298 124.428h-.02l-7.14-.031c-1.02-.005-1.864-.702-1.967-1.622l-.659-5.988a1.297 1.297 0 0 1 .303-.98 1.58 1.58 0 0 1 .491-.384c.188-.093.392-.148.602-.161.6-.044 1.447-.121 2.344-.202 1.888-.17 4.237-.386 5.559-.406h.028c.94-.006 1.75.562 1.978 1.388.38 1.373.36 3.976.304 6.75-.021.901-.836 1.631-1.823 1.636Zm-8.354-8.619a1.012 1.012 0 0 0-.707.348.76.76 0 0 0-.178.57l.659 5.987c.07.643.683 1.131 1.424 1.134l7.14.032h.014c.692-.004 1.263-.494 1.275-1.099.056-2.732.075-5.291-.284-6.594-.161-.583-.78-1-1.468-.985-1.303.023-3.64.235-5.52.404-.9.081-1.747.158-2.353.203h-.002Z"/><path fill="#fff" d="M46.716 116.422c1.499-.111 4.757-.459 6.304-.486.655-.012 1.231.381 1.388.948.304 1.102.276 3.301.235 5.332-.013.608-.568 1.096-1.25 1.092l-5.706-.025c-.702-.003-1.286-.478-1.356-1.101l-.526-4.784c-.054-.493.355-.934.91-.976ZM60.548 120.417a1.774 1.774 0 0 0 1.736 1.313l66.057-.908a1.336 1.336 0 0 0 1.303-1.35 1.338 1.338 0 0 0-1.323-1.331l-66.063.043a1.776 1.776 0 0 0-1.406.695 1.772 1.772 0 0 0-.304 1.538Z" opacity=".6"/><path fill="#fff" d="M54.377 139.73h-.019l-7.138-.031c-1.02-.004-1.864-.702-1.967-1.622l-.66-5.987a1.302 1.302 0 0 1 .304-.981 1.562 1.562 0 0 1 1.092-.545c.602-.044 1.448-.12 2.344-.201 1.888-.171 4.237-.386 5.56-.407h.028c.94-.004 1.75.563 1.978 1.389.38 1.373.36 3.977.303 6.75-.023.9-.837 1.63-1.825 1.635Zm-8.353-8.618a1.011 1.011 0 0 0-.707.348.759.759 0 0 0-.179.57l.66 5.987c.07.643.683 1.131 1.424 1.134l7.14.031h.014c.692-.003 1.262-.494 1.275-1.099.055-2.731.075-5.29-.284-6.593-.162-.584-.78-1.002-1.468-.985-1.303.023-3.641.234-5.52.403-.9.082-1.748.159-2.354.204Z"/><path fill="#fff" d="M46.796 131.726c1.499-.11 4.757-.459 6.303-.486.656-.011 1.232.381 1.388.948.304 1.102.277 3.302.235 5.332-.012.608-.568 1.093-1.25 1.093l-5.706-.026c-.701 0-1.285-.478-1.355-1.101l-.526-4.785c-.055-.494.355-.934.91-.975ZM60.628 135.72a1.772 1.772 0 0 0 1.736 1.311l66.056-.907a1.337 1.337 0 0 0 1.331-1.35 1.34 1.34 0 0 0-1.35-1.33l-66.063.042a1.764 1.764 0 0 0-1.406.695 1.772 1.772 0 0 0-.304 1.539Z" opacity=".6"/><path fill="#fff" d="M54.457 155.033h-.02l-7.14-.032c-1.02-.004-1.864-.701-1.966-1.621l-.66-5.987a1.302 1.302 0 0 1 .303-.981 1.558 1.558 0 0 1 1.089-.547c.601-.044 1.448-.121 2.344-.202 1.888-.171 4.237-.385 5.559-.407h.029c.94-.005 1.75.563 1.978 1.389.379 1.373.36 3.976.303 6.75-.017.903-.831 1.633-1.819 1.638Zm-8.353-8.619a1.011 1.011 0 0 0-.707.348.759.759 0 0 0-.148.267c-.031.098-.041.201-.031.303l.659 5.987c.07.643.683 1.131 1.424 1.134l7.14.032h.015c.692-.004 1.262-.495 1.274-1.1.056-2.731.076-5.29-.283-6.593-.162-.583-.78-1.004-1.47-.985-1.301.023-3.64.234-5.518.404-.9.081-1.748.158-2.354.203h-.001Z"/><path fill="#fff" d="M46.875 147.028c1.5-.111 4.757-.458 6.3-.486.655-.012 1.232.381 1.389.949.304 1.102.276 3.301.234 5.331-.012.608-.567 1.096-1.25 1.093l-5.705-.025c-.702 0-1.286-.478-1.355-1.101l-.527-4.785c-.051-.495.359-.935.914-.976ZM60.708 151.022a1.774 1.774 0 0 0 1.735 1.311l66.057-.907a1.337 1.337 0 0 0 1.331-1.35 1.344 1.344 0 0 0-.399-.945 1.343 1.343 0 0 0-.951-.385l-66.063.042c-.272 0-.54.063-.785.184a1.764 1.764 0 0 0-.953 1.245c-.053.267-.043.542.028.805Z" opacity=".6"/><path fill="url(#m)" d="M47.184 147.966a1.09 1.09 0 0 1 .843-.116 1.093 1.093 0 0 1 .671.522l1.422 2.517a.35.35 0 0 0 .628-.031l3.453-7.794c.172-.389.75-.261.746.164-.024 2.379-.631 6.904-4.412 10.708 0 0-2.099-.803-3.804-4.5a1.149 1.149 0 0 1 .453-1.47Z"/><path fill="#7D97F4" d="M36.85 21.356a3.421 3.421 0 0 1 3.86-3.431c13.683 1.783 60.729 7.275 99.585 4.087a3.163 3.163 0 0 1 3.422 2.964l8.507 145.767a3.637 3.637 0 0 1-3.399 3.845c-16.344 1.052-83.654 5.143-107.683 2.753a2.883 2.883 0 0 1-2.594-2.84L36.85 21.356Z"/><path fill="#BDD0FB" d="M38.477 25.001a3.291 3.291 0 0 1 3.716-3.301c13.166 1.716 58.441 6.998 95.834 3.932a3.043 3.043 0 0 1 3.292 2.853l8.188 140.275a3.504 3.504 0 0 1-3.271 3.7c-15.729 1.013-80.504 4.95-103.629 2.649a2.774 2.774 0 0 1-2.496-2.733L38.477 25.001Z"/><path fill="#fff" d="M62.346 112.238h-.019l-7.14-.031c-1.02-.005-1.864-.702-1.967-1.622l-.66-5.988a1.299 1.299 0 0 1 .303-.98 1.564 1.564 0 0 1 1.093-.545c.601-.044 1.448-.12 2.345-.201 1.887-.171 4.236-.386 5.559-.407.959-.01 1.776.554 2.006 1.388.38 1.373.36 3.976.303 6.75-.02.901-.835 1.631-1.823 1.636Zm-8.353-8.619a1.012 1.012 0 0 0-.707.348.76.76 0 0 0-.18.571l.66 5.987c.07.642.683 1.13 1.424 1.134l7.14.031h.014c.692-.004 1.263-.494 1.275-1.099.056-2.732.075-5.291-.284-6.593-.161-.583-.771-.987-1.468-.986-1.303.023-3.64.235-5.52.404-.9.082-1.747.159-2.353.203h-.001Z"/><path fill="#fff" d="M54.764 104.234c1.5-.111 4.758-.459 6.304-.486.655-.012 1.232.381 1.388.948.305 1.102.277 3.301.235 5.332-.012.608-.568 1.096-1.25 1.092l-5.705-.025c-.702 0-1.286-.478-1.356-1.101l-.527-4.784c-.053-.495.356-.939.911-.976ZM68.597 108.228a1.77 1.77 0 0 0 1.736 1.312l66.056-.907a1.342 1.342 0 0 0-.019-2.681l-66.063.042a1.777 1.777 0 0 0-1.738 1.429c-.052.267-.043.543.028.805Z" opacity=".6"/><path fill="#fff" d="M62.426 130.027h-.02l-7.14-.031c-1.02-.005-1.864-.702-1.967-1.622l-.659-5.988a1.299 1.299 0 0 1 .303-.98 1.565 1.565 0 0 1 1.093-.545c.601-.044 1.448-.121 2.344-.202 1.888-.171 4.237-.385 5.56-.407h.028c.939-.005 1.75.563 1.978 1.389.379 1.373.36 3.976.303 6.75-.021.901-.835 1.631-1.823 1.636Zm-8.353-8.619a1.013 1.013 0 0 0-.707.348.759.759 0 0 0-.148.267c-.031.098-.042.201-.031.303l.659 5.987c.07.643.683 1.131 1.424 1.134l7.14.032h.015c.692-.004 1.262-.495 1.275-1.1.055-2.731.075-5.29-.285-6.593-.161-.583-.78-.999-1.468-.985-1.302.023-3.64.234-5.52.404-.9.081-1.747.158-2.353.203h-.001Z"/><path fill="#fff" d="M54.844 122.022c1.5-.11 4.757-.458 6.304-.486.655-.011 1.232.381 1.388.949.304 1.102.276 3.301.235 5.331-.013.608-.568 1.096-1.25 1.093l-5.706-.025c-.701 0-1.286-.478-1.355-1.101l-.527-4.784c-.054-.495.358-.936.911-.977ZM68.677 126.016a1.774 1.774 0 0 0 1.735 1.312l66.057-.907a1.343 1.343 0 0 0 .945-.399 1.337 1.337 0 0 0 .28-1.463 1.33 1.33 0 0 0-.731-.72 1.326 1.326 0 0 0-.513-.098l-66.063.042a1.776 1.776 0 0 0-1.406.695 1.772 1.772 0 0 0-.304 1.538Z" opacity=".6"/><path fill="#fff" d="M62.506 148.564h-.02l-7.14-.031c-1.02-.004-1.864-.702-1.967-1.622l-.659-5.987a1.306 1.306 0 0 1 .303-.981 1.562 1.562 0 0 1 1.093-.545c.6-.044 1.447-.12 2.344-.201 1.887-.171 4.237-.386 5.558-.407h.03c.939-.005 1.75.563 1.977 1.389.38 1.373.36 3.976.304 6.75-.021.897-.836 1.627-1.823 1.635Zm-8.354-8.619a1.013 1.013 0 0 0-.707.348.759.759 0 0 0-.178.571l.658 5.987c.071.643.684 1.131 1.425 1.133l7.14.032h.014c.692-.004 1.262-.494 1.275-1.099.055-2.731.075-5.291-.284-6.593-.161-.584-.78-1.003-1.468-.986-1.303.023-3.64.235-5.52.404-.9.082-1.748.159-2.353.203h-.002Z"/><path fill="#fff" d="M54.924 140.556c1.499-.11 4.757-.458 6.304-.485.655-.012 1.231.381 1.388.948.304 1.102.276 3.301.234 5.331-.012.609-.567 1.097-1.25 1.093l-5.705-.025c-.702 0-1.286-.479-1.356-1.101l-.526-4.785c-.055-.494.355-.934.91-.976ZM68.756 144.551a1.773 1.773 0 0 0 1.735 1.311l66.057-.907a1.337 1.337 0 0 0 1.331-1.35 1.341 1.341 0 0 0-1.35-1.33l-66.063.042c-.272 0-.54.063-.785.184a1.764 1.764 0 0 0-.953 1.245c-.053.267-.043.542.028.805Z" opacity=".6"/><path fill="#fff" d="M63.083 167.095h-.02l-7.14-.031c-1.02-.004-1.864-.702-1.967-1.622l-.66-5.987a1.302 1.302 0 0 1 .304-.981 1.562 1.562 0 0 1 1.092-.545c.602-.044 1.448-.12 2.345-.201 1.887-.171 4.236-.386 5.559-.407h.029c.938-.005 1.749.563 1.977 1.389.38 1.373.36 3.977.303 6.75-.02.9-.835 1.63-1.822 1.635Zm-8.353-8.618a.994.994 0 0 0-.707.348.757.757 0 0 0-.18.57l.66 5.987c.07.643.682 1.131 1.424 1.134l7.14.031h.014c.692-.003 1.263-.494 1.275-1.099.055-2.731.075-5.291-.284-6.593-.162-.584-.78-1.004-1.469-.986-1.302.023-3.64.235-5.519.404-.9.082-1.747.159-2.353.204h-.001Z"/><path fill="#fff" d="M55.5 159.091c1.5-.11 4.758-.459 6.304-.486.655-.011 1.232.381 1.388.948.305 1.102.277 3.302.236 5.332-.013.608-.569 1.096-1.25 1.093l-5.706-.026c-.702 0-1.286-.478-1.355-1.101l-.527-4.785c-.055-.494.355-.934.91-.975ZM69.334 163.085a1.772 1.772 0 0 0 1.736 1.312l66.057-.907a1.341 1.341 0 0 0-.019-2.681l-66.064.042a1.764 1.764 0 0 0-1.406.695 1.772 1.772 0 0 0-.304 1.539Z" opacity=".6"/><path fill="url(#n)" d="M55.81 160.029a1.09 1.09 0 0 1 1.23.074c.115.09.212.201.283.329l1.422 2.517a.35.35 0 0 0 .628-.03l3.452-7.795c.172-.389.751-.261.747.165-.024 2.378-.631 6.903-4.412 10.707 0 0-2.099-.803-3.805-4.5a1.15 1.15 0 0 1 .455-1.467Z"/><path fill="url(#o)" d="M54.934 140.885a1.087 1.087 0 0 1 .842-.118 1.093 1.093 0 0 1 .672.521l1.422 2.517c.032.057.079.104.136.136a.358.358 0 0 0 .369-.018.351.351 0 0 0 .123-.148l3.452-7.795c.173-.389.75-.261.747.165-.023 2.379-.632 6.903-4.412 10.707 0 0-2.098-.803-3.805-4.5a1.147 1.147 0 0 1 .454-1.467Z"/><path fill="url(#p)" d="M54.934 122.383a1.087 1.087 0 0 1 .842-.118 1.093 1.093 0 0 1 .672.522l1.422 2.516c.032.057.079.104.136.136a.358.358 0 0 0 .369-.018.351.351 0 0 0 .123-.148l3.452-7.795c.173-.388.75-.261.747.165-.023 2.379-.632 6.904-4.412 10.707 0 0-2.098-.802-3.805-4.5a1.147 1.147 0 0 1 .454-1.467Z"/><path fill="url(#q)" d="M62.327 99.85c.172-.385.75-.26.746.165-.023 2.379-.631 6.903-4.412 10.708 0 0-2.099-.803-3.804-4.5a1.15 1.15 0 0 1 .454-1.47 1.104 1.104 0 0 1 .842-.117 1.107 1.107 0 0 1 .672.52l1.421 2.518a.36.36 0 0 0 .136.135.358.358 0 0 0 .37-.018.351.351 0 0 0 .122-.148l3.453-7.792Z"/><path fill="#fff" d="M60.922 57.266h-.019l-7.14-.031c-1.02-.005-1.864-.702-1.967-1.623l-.66-5.983a1.3 1.3 0 0 1 .304-.98 1.567 1.567 0 0 1 1.09-.546c.6-.044 1.447-.12 2.344-.202 1.887-.17 4.236-.382 5.558-.406h.029c.939-.005 1.75.563 1.978 1.389.38 1.373.36 3.976.303 6.75-.018.898-.832 1.627-1.82 1.632Zm-8.353-8.618a1.018 1.018 0 0 0-.707.348.759.759 0 0 0-.179.57l.66 5.987c.07.643.682 1.13 1.424 1.134l7.14.032h.014c.692-.004 1.263-.495 1.275-1.1.055-2.731.075-5.29-.284-6.593-.162-.583-.78-1-1.469-.985-1.302.023-3.64.234-5.52.404-.9.081-1.746.157-2.353.203Z"/><path fill="#fff" d="M53.34 49.262c1.5-.11 4.758-.458 6.304-.486.656-.011 1.232.382 1.388.95.304 1.1.277 3.3.236 5.33-.013.608-.569 1.093-1.25 1.093l-5.707-.025c-.701 0-1.285-.478-1.355-1.101l-.526-4.785c-.054-.494.355-.935.91-.976ZM67.173 53.256a1.772 1.772 0 0 0 1.736 1.312l66.056-.907a1.343 1.343 0 0 0 1.304-1.35 1.34 1.34 0 0 0-1.323-1.331l-66.063.042a1.774 1.774 0 0 0-1.71 2.234ZM57.522 37.31c.193 1.195.894 2.032 1.705 2.031l66.066-.047c.748 0 1.357-.931 1.354-2.07 0-1.105-.583-1.997-1.309-2.011l-66.052-1.27c-1.166-.021-2.038 1.646-1.764 3.367Z" opacity=".6"/><path fill="#fff" d="M61.002 75.801h-.02l-7.14-.031c-1.02-.005-1.864-.702-1.967-1.622l-.658-5.988a1.3 1.3 0 0 1 .302-.98 1.568 1.568 0 0 1 1.09-.545c.601-.044 1.448-.121 2.344-.202 1.887-.17 4.237-.386 5.56-.406h.028c.939-.005 1.75.562 1.978 1.388.379 1.373.36 3.976.303 6.75-.018.9-.833 1.631-1.82 1.636Zm-8.353-8.62a1.016 1.016 0 0 0-.707.35.757.757 0 0 0-.18.57l.66 5.986c.07.643.683 1.131 1.424 1.134l7.14.032h.015c.692-.004 1.262-.494 1.275-1.1.055-2.73.075-5.29-.285-6.593-.16-.583-.78-1.002-1.468-.985-1.302.023-3.64.235-5.52.404-.9.081-1.747.159-2.353.203h-.001Z"/><path fill="#fff" d="M53.42 67.796c1.5-.11 4.757-.458 6.304-.485.655-.012 1.232.38 1.388.948.304 1.102.276 3.302.235 5.332-.013.608-.568 1.093-1.25 1.093l-5.706-.026c-.701 0-1.286-.478-1.355-1.1l-.527-4.785c-.054-.495.355-.936.911-.977ZM67.253 71.79a1.773 1.773 0 0 0 1.735 1.313l66.058-.91a1.34 1.34 0 0 0-.019-2.681l-66.064.042a1.773 1.773 0 0 0-1.71 2.237Z" opacity=".6"/><path fill="#fff" d="M61.58 94.335h-.02l-7.14-.028c-1.02-.004-1.864-.701-1.967-1.622l-.659-5.987a1.3 1.3 0 0 1 .303-.98 1.57 1.57 0 0 1 1.092-.546c.602-.044 1.448-.12 2.345-.201 1.887-.171 4.236-.386 5.559-.407h.029c.938-.005 1.749.563 1.977 1.389.38 1.373.36 3.976.304 6.75-.022.897-.837 1.627-1.824 1.632Zm-8.354-8.619a1.013 1.013 0 0 0-.707.348.757.757 0 0 0-.18.57l.66 5.988c.07.642.683 1.13 1.424 1.134l7.14.031h.014c.693-.004 1.263-.494 1.275-1.1.056-2.73.075-5.29-.284-6.592-.161-.583-.78-1.004-1.468-.986-1.303.023-3.64.235-5.52.404-.9.081-1.747.159-2.353.203h-.001Z"/><path fill="#fff" d="M53.997 86.33c1.5-.11 4.757-.458 6.304-.485.655-.012 1.231.38 1.388.949.304 1.101.276 3.3.235 5.33-.012.609-.568 1.094-1.25 1.094l-5.706-.025c-.702 0-1.286-.479-1.355-1.102l-.526-4.784c-.055-.495.354-.936.91-.976ZM67.83 90.326a1.774 1.774 0 0 0 1.735 1.31l66.057-.906a1.342 1.342 0 0 0-.019-2.68l-66.064.041a1.772 1.772 0 0 0-1.71 2.235Z" opacity=".6"/><path fill="url(#r)" d="M162.845 116.614c.103.282 4.211-7.848 4.211-7.848l-9.2-5.855 4.415-10.75-10.864-6.251 13.763 6.065-4.036 9.579s11.781 7.108 11.625 7.214c-.156.106-9.914 7.846-9.914 7.846Z"/><path fill="url(#s)" d="M177.917 0c-.378.257-7.979 13.596-7.979 13.596l-7.764-7.077s-12.709 14.464-12.521 13.71c.189-.753 11.151-18.603 11.151-18.603l9.022 9.67L177.917 0Z"/><path fill="url(#t)" d="M72.63.129c.204.416 12.592 9.925 12.592 9.925l-8.208 6.84s12.81 14.812 12.078 14.517c-.732-.295-17.197-13.815-17.197-13.815l10.993-7.75L72.629.13Z"/><path fill="url(#u)" d="M48.993 73.878c.836.47 15.194-.882 15.194-.882l-1.69-10.028s17.184-2.243 17.063-2.002c-.12.24-20.957-1.194-20.957-1.194l2.71 10.758-12.32 3.348Z"/><path fill="url(#v)" d="M140.156 179.146c1.513.128 4.139.343 6.21.434 1.244.055 1.961-.064 2.374-.232 0 .046-.001.089-.004.128a.432.432 0 0 1-.407.405 72.789 72.789 0 0 1-8.131.008.321.321 0 0 1-.148-.046.302.302 0 0 1-.142-.263.3.3 0 0 1 .041-.149c.062-.1.131-.195.207-.285Z"/><path fill="url(#w)" d="M146.366 179.58c-2.071-.091-4.697-.304-6.21-.434 1.487-1.826 6.21-3.056 6.21-3.056h1.333c.917 1.322 1.049 2.581 1.04 3.258-.412.165-1.129.287-2.373.232Z"/><path fill="url(#x)" d="m147.924 173.912-.125 2.47a.566.566 0 0 1-.481.531c-.336.05-.679.022-1.002-.083a.657.657 0 0 1-.45-.514l-.431-2.405 2.489.001Z"/><path fill="url(#y)" d="M165.249 179.562c.655-.092.952-.433 1.077-.797v.009c.096.386-.129.783-.575.973-.541.229-1.132.268-1.591.249-.493-.02-.945-.224-1.194-.551l-.003-.004c.497.244 1.193.273 2.286.121Z"/><path fill="url(#z)" d="M162.154 173.897h1.102c1.675-.034 2.727 3.499 3.071 4.868-.124.364-.421.707-1.077.797-1.093.152-1.789.123-2.283-.121-.905-1.191-1.354-2.936-1.57-3.954-.247-1.157.757-1.59.757-1.59Z"/><path fill="url(#A)" d="m163.112 171.604.611 2.43a.659.659 0 0 1-.343.747c-.342.175-.823.359-1.265.306a.552.552 0 0 1-.45-.367l-.897-2.556 2.344-.56Z"/><path fill="url(#B)" d="M163.841 172.306c-.76.675-3.232.764-3.232.764-8.903-21.369-12.545-24.405-12.545-24.405 1.285 8.066.207 25.922.207 25.922-1.469.648-3.363 0-3.363 0a137.717 137.717 0 0 0-4.546-33.801c6.017-.135 9.217-2.194 10.262-3.022 5.016 8.09 13.217 34.542 13.217 34.542Z"/><path fill="url(#C)" d="M149.095 113.194c1.14 5.681.731 15.849.463 20.488-.075 1.303.836 3.111 1.57 4.344a.402.402 0 0 1 .041.306.389.389 0 0 1-.197.237c-1.231.633-5.403 2.595-10.238 2.839a.694.694 0 0 1-.695-.515c-3.586-13.392-7.752-21.949-7.752-21.949 4.599-7.344 16.808-5.75 16.808-5.75Z"/><path fill="url(#D)" d="M147.456 148.16a.295.295 0 0 0 .142-.04.287.287 0 0 0 .101-.391c-.049-.079-1.2-1.94-3.53-3.065a.314.314 0 0 0-.108-.028.3.3 0 0 0-.207.072.307.307 0 0 0-.067.089.314.314 0 0 0-.028.108.284.284 0 0 0 .161.274c2.173 1.048 3.279 2.828 3.291 2.847a.285.285 0 0 0 .245.134Z"/><path fill="url(#E)" d="M156.24 129.499c-.366 2.646-1.447 5.533-3.609 8.6l-.822-.67s.949-3.85.409-8.22c1.334-.259 2.909.009 4.022.29Z"/><path fill="url(#F)" d="m147.823 120.203 1.272-7.007s8.5 6.498 7.144 16.305c-1.112-.281-2.687-.549-4.021-.289-.389-3.148-1.55-6.567-4.395-9.009Z"/><path fill="url(#G)" d="m132.287 118.943 3.279 7.066c-.53 4.266-2.822 6.107-5.293 6.818a14.997 14.997 0 0 0-1.102-4.602c3.159-3.26 3.116-9.282 3.116-9.282Z"/><path fill="url(#H)" d="M129.173 128.225c.609 1.466.98 3.019 1.102 4.602-6.592 2.558-8.337-2.403-8.337-2.403l1.221-.215c2.747.291 4.671-.597 6.014-1.984Z"/><path fill="url(#I)" d="m135.31 110.219 1.584 5.823a1.142 1.142 0 0 0 .588.716 1.131 1.131 0 0 0 .927.038 23.005 23.005 0 0 0 2.282-1.043 1.54 1.54 0 0 0 .481-.409 1.54 1.54 0 0 0 .274-.569 1.519 1.519 0 0 0-.217-1.216l-3.293-4.91-2.626 1.57Z"/><path fill="url(#J)" d="M131.844 105.795c-.014.1 1.321 6.645 1.321 6.645l3.721-.843-.344-6.39s-4.456-1.086-4.698.588Z"/><path fill="url(#K)" d="m135.705 106.631.445 3.35a.465.465 0 0 1 0 .129c-.037.263-.232 1.157-1.135.9-.819-.232-1.57-.432-2.089-.273a.472.472 0 0 0-.321.546c.121.594.42 1.928.856 3.049a.47.47 0 0 0 .572.279c.707-.206 2.182-.682 3.279-1.343a.467.467 0 0 0 .229-.425c-.035-.845-.134-3.416-.05-4.136.077-.677.907-1.082 1.269-1.228a.47.47 0 0 0 .257-.257c.167-.418.397-1.387-.823-1.784a.466.466 0 0 1-.28-.242.475.475 0 0 1-.02-.369c.181-.503.258-1.272-.687-1.695-.96-.43-1.676.082-2.063.497a.47.47 0 0 1-.602.072c-.111-.07-.253-.093-.425.014a.474.474 0 0 1-.374.046.47.47 0 0 1-.285-.245c-.23-.472-.698-.978-1.637-.817-1.668.286-1.857 2.133-1.415 3.214.443 1.082 2.23.67 3.128.125.683-.415 1.569.019 1.954.252a.469.469 0 0 1 .217.341Z"/><path fill="url(#L)" d="M137.637 109.929s-.685-1.92.019-2.39c.705-.47 1.748-.226 1.518 1.164-.283 1.73-1.537 1.226-1.537 1.226Z"/><path fill="url(#M)" d="M122.427 131.331c-.332.258-1.469-.281-2.164-.655a.802.802 0 0 1-.386-.947c.168-.527.446-1.209.79-1.295.569-.142 3.127 1.83 1.76 2.897Z"/><path fill="url(#N)" d="M178.403 147.365 91.591 116.49l-4.593 12.758 86.783 31.738a4.051 4.051 0 0 0 4.885-1.769c1.015-1.742 1.984-4.464 2.043-8.541a3.468 3.468 0 0 0-2.306-3.311Z"/><path fill="url(#O)" d="m64.733 113.193 11.992 1.472c-.013 1.65-.553 3.786-2.382 6.235l-10.015-6.606c-.531-.351-.227-1.179.405-1.101Z"/><path fill="url(#P)" d="M91.59 116.49c.55 7.996-4.592 12.758-4.592 12.758L74.343 120.9c1.83-2.45 2.37-4.585 2.382-6.235l14.866 1.825Z"/><path fill="url(#Q)" d="M177.326 151.277a.258.258 0 0 0 .214-.382.25.25 0 0 0-.129-.113l-83.057-29.353a.254.254 0 0 0-.296.166.256.256 0 0 0 .126.315l83.058 29.352c.027.01.056.015.084.015Z"/><path fill="url(#R)" d="M175.894 156.283a.26.26 0 0 0 .243-.214.256.256 0 0 0-.158-.282l-83.057-29.353a.26.26 0 0 0-.18.027.26.26 0 0 0-.112.32.257.257 0 0 0 .122.134l83.057 29.353c.028.01.056.014.085.015Z"/><path fill="url(#S)" d="m152.148 137.314-3.837-.312-1.662 1.531s.393.544 1.622.232c1.229-.313 2.912-.389 2.912-.389s1.698.765 1.718-.667l-.753-.395Z"/><path fill="url(#T)" d="M83.494 52.612c0 21.747 18.296 39.377 40.866 39.377s41.877-18.4 41.877-40.148c0-21.748-19.307-38.607-41.874-38.607-22.568 0-40.87 17.63-40.87 39.378Z"/><path fill="#BDD0FB" d="M163.029 43.037a.276.276 0 0 0 .072-.009.267.267 0 0 0 .171-.124.28.28 0 0 0 .03-.209 34.811 34.811 0 0 0-1.671-4.693.291.291 0 0 0-.461-.086.266.266 0 0 0-.081.194.27.27 0 0 0 .021.105 33.908 33.908 0 0 1 1.644 4.619.28.28 0 0 0 .275.203ZM156.784 30.732c.061 0 .12-.02.17-.055a.273.273 0 0 0 .109-.179.274.274 0 0 0-.006-.106.283.283 0 0 0-.048-.096c-7.572-9.674-19.768-15.45-32.624-15.45-5.492 0-10.8 1.073-15.786 3.188a.269.269 0 0 0 .014.503.287.287 0 0 0 .214-.005c4.911-2.085 10.145-3.142 15.557-3.142 12.68 0 24.708 5.694 32.174 15.236a.283.283 0 0 0 .226.106Z"/><path fill="#91B3FA" d="M89.054 52.612c0 18.825 15.837 34.085 35.374 34.085 19.537 0 36.249-15.927 36.249-34.752 0-18.825-16.714-33.418-36.249-33.418-19.534 0-35.374 15.26-35.374 34.085Z"/><path fill="#fff" d="M151.637 50.844c.088 1.447 1.376 2.552 2.878 2.468 1.501-.085 2.648-1.326 2.56-2.773-.087-1.447-1.375-2.552-2.877-2.467-1.502.084-2.648 1.325-2.561 2.772ZM92.798 54.144c.087 1.446 1.376 2.551 2.877 2.467 1.502-.084 2.648-1.325 2.56-2.772-.087-1.448-1.374-2.552-2.876-2.468-1.502.084-2.647 1.326-2.56 2.773ZM129.742 77.693c-1.478.258-2.459 1.627-2.189 3.053s1.688 2.37 3.168 2.11c1.48-.26 2.46-1.627 2.19-3.053-.271-1.426-1.689-2.37-3.169-2.11ZM119.156 21.827c-1.479.26-2.46 1.627-2.19 3.053s1.689 2.37 3.169 2.11c1.48-.26 2.459-1.627 2.189-3.053s-1.69-2.37-3.168-2.11ZM110.381 79.193c-.277.673-.208 1.303.154 1.407.362.104.88-.357 1.157-1.028.277-.672.208-1.303-.154-1.408-.362-.104-.881.356-1.157 1.029ZM134.051 26.203c-.277.674-.207 1.303.155 1.408.361.104.88-.357 1.157-1.029.277-.672.207-1.303-.155-1.407-.362-.104-.881.356-1.157 1.028ZM98.021 69.12c-.6.437-.88 1.01-.626 1.28.253.27.944.135 1.543-.3.598-.437.88-1.01.626-1.28-.253-.27-.944-.136-1.543.3ZM146.805 35.679c-.599.436-.88 1.01-.627 1.28s.945.135 1.543-.302c.599-.436.879-1.01.626-1.28s-.944-.137-1.542.302ZM96.469 39.117c-.678-.311-1.336-.287-1.468.054-.131.342.31.87.989 1.181.678.311 1.335.287 1.467-.054.133-.342-.31-.87-.988-1.181ZM149.756 65.422c-.679-.31-1.336-.286-1.468.055-.132.341.311.87.989 1.18.678.312 1.335.288 1.467-.053.132-.34-.313-.87-.988-1.182ZM107.727 27.909c-.412-.605-.986-.913-1.286-.688-.299.225-.204.9.208 1.504.413.605.987.913 1.286.688.299-.226.204-.9-.208-1.504ZM139.091 77.049c-.412-.605-.987-.913-1.286-.687-.299.226-.204.9.208 1.504.412.603.986.912 1.286.687.299-.225.204-.896-.208-1.504Z" opacity=".78"/><path fill="url(#U)" d="m124.535 51.974 23.887 4.312c.463.083.86-.344.725-.78l-.806-2.593c-.156-.504.386-.958.878-.73l18.82 8.725c.578.266.395 1.107-.247 1.15l-20.755 1.383a.597.597 0 0 1-.57-.9l1.697-2.82a.593.593 0 0 0-.127-.762.59.59 0 0 0-.25-.123l-23.539-5.679a.592.592 0 0 1-.446-.719.641.641 0 0 1 .733-.464Z"/><path fill="#fff" d="M165.651 61.502a.534.534 0 0 0 .386-.411.5.5 0 0 0-.305-.568l-4.071-1.736a.288.288 0 0 0-.398.245.271.271 0 0 0 .075.195.27.27 0 0 0 .089.06l4.07 1.736c-4.716.25-15.732.938-15.954.977a.276.276 0 0 0-.181.11.276.276 0 0 0-.052.206.274.274 0 0 0 .316.221c.325-.038 8.766-.57 15.907-1.015a.56.56 0 0 0 .118-.02Z"/><path fill="url(#V)" d="m123.247 50.52.044-20.612c-.007-.456-.514-.74-.931-.518l-2.461 1.322c-.479.257-1.046-.16-.913-.673l5.09-19.707c.156-.603 1.041-.613 1.212-.014l5.509 19.36c.129.462-.321.881-.798.732l-3.185-.997c-.394-.124-.801.148-.82.547L124.5 50.538a.619.619 0 0 1-.639.578.613.613 0 0 1-.614-.596Z"/><path fill="#fff" d="M129.106 27.788a.29.29 0 0 0 .195-.074.272.272 0 0 0 .07-.293c-.102-.298-2.314-8.179-4.178-14.847a.543.543 0 0 0-.535-.384.546.546 0 0 0-.514.41l-.949 4.23a.276.276 0 0 0 .117.281c.03.02.064.034.099.04a.283.283 0 0 0 .336-.207l.948-4.23c1.187 4.413 4.066 14.697 4.149 14.9a.282.282 0 0 0 .262.174Z"/><path fill="url(#W)" d="M124.611 54.428c1.607 0 2.909-1.255 2.909-2.803s-1.302-2.803-2.909-2.803c-1.607 0-2.909 1.255-2.909 2.803s1.302 2.803 2.909 2.803Z"/><defs><linearGradient id="a" x1="202.131" x2="44.333" y1="230.416" y2="34.44" gradientUnits="userSpaceOnUse"><stop stop-color="#DAE3FE"/><stop offset="1" stop-color="#E9EFFD"/></linearGradient><linearGradient id="b" x1="75.633" x2="13.206" y1="129.199" y2="197.008" gradientUnits="userSpaceOnUse"><stop stop-color="#4F52FF"/><stop offset="1" stop-color="#4042E2"/></linearGradient><linearGradient id="c" x1="38094.4" x2="120265" y1="1458.64" y2="1458.64" gradientUnits="userSpaceOnUse"><stop stop-color="#DAE3FE"/><stop offset="1" stop-color="#E9EFFD"/></linearGradient><linearGradient id="d" x1="38094.4" x2="120265" y1="1476.47" y2="1476.47" gradientUnits="userSpaceOnUse"><stop stop-color="#DAE3FE"/><stop offset="1" stop-color="#E9EFFD"/></linearGradient><linearGradient id="e" x1="38094.4" x2="120265" y1="1494.26" y2="1494.26" gradientUnits="userSpaceOnUse"><stop stop-color="#DAE3FE"/><stop offset="1" stop-color="#E9EFFD"/></linearGradient><linearGradient id="f" x1="38094.4" x2="120265" y1="1512.14" y2="1512.14" gradientUnits="userSpaceOnUse"><stop stop-color="#DAE3FE"/><stop offset="1" stop-color="#E9EFFD"/></linearGradient><linearGradient id="g" x1="38106.2" x2="120302" y1="1527.97" y2="1527.97" gradientUnits="userSpaceOnUse"><stop stop-color="#DAE3FE"/><stop offset="1" stop-color="#E9EFFD"/></linearGradient><linearGradient id="h" x1="101.107" x2="37.564" y1="101.272" y2="186.658" gradientUnits="userSpaceOnUse"><stop stop-color="#53D8FF"/><stop offset="1" stop-color="#3840F7"/></linearGradient><linearGradient id="i" x1="6149.63" x2="-1647.52" y1="26300.9" y2="28785.3" gradientUnits="userSpaceOnUse"><stop stop-color="#53D8FF"/><stop offset="1" stop-color="#3840F7"/></linearGradient><linearGradient id="j" x1="35354.4" x2="63701.4" y1="94460.7" y2="94460.7" gradientUnits="userSpaceOnUse"><stop stop-color="#DAE3FE"/><stop offset="1" stop-color="#E9EFFD"/></linearGradient><linearGradient id="k" x1="52.026" x2="105.319" y1="22.205" y2="114.248" gradientUnits="userSpaceOnUse"><stop stop-color="#CE1567"/><stop offset="1" stop-color="#7A1DBC"/></linearGradient><linearGradient id="l" x1="27393.8" x2="29837.7" y1="13214" y2="32122.3" gradientUnits="userSpaceOnUse"><stop stop-color="#CE1567"/><stop offset="1" stop-color="#7A1DBC"/></linearGradient><linearGradient id="m" x1="87.843" x2="51.712" y1="83.967" y2="146.382" gradientUnits="userSpaceOnUse"><stop stop-color="#A737D5"/><stop offset="1" stop-color="#EF497A"/></linearGradient><linearGradient id="n" x1="115.655" x2="105.051" y1="-40.836" y2="-3.138" gradientUnits="userSpaceOnUse"><stop stop-color="#FF928E"/><stop offset="1" stop-color="#FE7062"/></linearGradient><linearGradient id="o" x1="14867.4" x2="12517.1" y1="447.905" y2="6585.73" gradientUnits="userSpaceOnUse"><stop stop-color="#FF928E"/><stop offset="1" stop-color="#FE7062"/></linearGradient><linearGradient id="p" x1="14243.9" x2="11893.6" y1="190.538" y2="6328.37" gradientUnits="userSpaceOnUse"><stop stop-color="#FF928E"/><stop offset="1" stop-color="#FE7062"/></linearGradient><linearGradient id="q" x1="13696.6" x2="11347.1" y1="-37.065" y2="6100.37" gradientUnits="userSpaceOnUse"><stop stop-color="#FF928E"/><stop offset="1" stop-color="#FE7062"/></linearGradient><linearGradient id="r" x1="92167.6" x2="78396.2" y1="-60339.6" y2="-32177.8" gradientUnits="userSpaceOnUse"><stop stop-color="#4F52FF"/><stop offset="1" stop-color="#4042E2"/></linearGradient><linearGradient id="s" x1="85158.6" x2="66559.2" y1="54452.9" y2="42037" gradientUnits="userSpaceOnUse"><stop stop-color="#4F52FF"/><stop offset="1" stop-color="#4042E2"/></linearGradient><linearGradient id="t" x1="54757.7" x2="28679.1" y1="-9070.86" y2="6252" gradientUnits="userSpaceOnUse"><stop stop-color="#4F52FF"/><stop offset="1" stop-color="#4042E2"/></linearGradient><linearGradient id="u" x1="-552564" x2="-543258" y1="319185" y2="306240" gradientUnits="userSpaceOnUse"><stop stop-color="#4F52FF"/><stop offset="1" stop-color="#4042E2"/></linearGradient><linearGradient id="v" x1="21305.7" x2="20092.2" y1="2949.85" y2="2949.85" gradientUnits="userSpaceOnUse"><stop stop-color="#4F52FF"/><stop offset="1" stop-color="#4042E2"/></linearGradient><linearGradient id="w" x1="148.74" x2="140.156" y1="177.841" y2="177.841" gradientUnits="userSpaceOnUse"><stop stop-color="#09005D"/><stop offset="1" stop-color="#1A0F91"/></linearGradient><linearGradient id="x" x1="147.924" x2="145.436" y1="175.424" y2="175.424" gradientUnits="userSpaceOnUse"><stop stop-color="#FEBBBA"/><stop offset="1" stop-color="#FF928E"/></linearGradient><linearGradient id="y" x1="8960.31" x2="8782.07" y1="4188.02" y2="4188.02" gradientUnits="userSpaceOnUse"><stop stop-color="#4F52FF"/><stop offset="1" stop-color="#4042E2"/></linearGradient><linearGradient id="z" x1="-13284.3" x2="-12900.2" y1="18629.8" y2="18629.8" gradientUnits="userSpaceOnUse"><stop stop-color="#09005D"/><stop offset="1" stop-color="#1A0F91"/></linearGradient><linearGradient id="A" x1="-7765.81" x2="-7628.28" y1="11176.1" y2="11176.1" gradientUnits="userSpaceOnUse"><stop stop-color="#FEBBBA"/><stop offset="1" stop-color="#FF928E"/></linearGradient><linearGradient id="B" x1="54010.5" x2="74309" y1="101277" y2="119993" gradientUnits="userSpaceOnUse"><stop stop-color="#4F52FF"/><stop offset="1" stop-color="#4042E2"/></linearGradient><linearGradient id="C" x1="58598.6" x2="53364.1" y1="37092.6" y2="46226.9" gradientUnits="userSpaceOnUse"><stop stop-color="#FF928E"/><stop offset="1" stop-color="#FE7062"/></linearGradient><linearGradient id="D" x1="9806.44" x2="9734.18" y1="10645.8" y2="10482.6" gradientUnits="userSpaceOnUse"><stop stop-color="#53D8FF"/><stop offset="1" stop-color="#3840F7"/></linearGradient><linearGradient id="E" x1="-10719.3" x2="-11812.8" y1="22412" y2="22889" gradientUnits="userSpaceOnUse"><stop stop-color="#FEBBBA"/><stop offset="1" stop-color="#FF928E"/></linearGradient><linearGradient id="F" x1="27589.5" x2="24271.5" y1="22062.7" y2="26626.3" gradientUnits="userSpaceOnUse"><stop stop-color="#FF928E"/><stop offset="1" stop-color="#FE7062"/></linearGradient><linearGradient id="G" x1="19048" x2="16129.3" y1="17504.4" y2="21025.2" gradientUnits="userSpaceOnUse"><stop stop-color="#FF928E"/><stop offset="1" stop-color="#FE7062"/></linearGradient><linearGradient id="H" x1="-17761" x2="-16679.8" y1="13416.4" y2="13416.4" gradientUnits="userSpaceOnUse"><stop stop-color="#FEBBBA"/><stop offset="1" stop-color="#FF928E"/></linearGradient><linearGradient id="I" x1="-13898.4" x2="-13913.9" y1="17754.6" y2="19747.2" gradientUnits="userSpaceOnUse"><stop stop-color="#FEBBBA"/><stop offset="1" stop-color="#FF928E"/></linearGradient><linearGradient id="J" x1="9070.02" x2="9877.43" y1="26211.3" y2="27153.3" gradientUnits="userSpaceOnUse"><stop stop-color="#FEBBBA"/><stop offset="1" stop-color="#FF928E"/></linearGradient><linearGradient id="K" x1="17662.1" x2="16400.4" y1="42291.3" y2="42112.9" gradientUnits="userSpaceOnUse"><stop stop-color="#09005D"/><stop offset="1" stop-color="#1A0F91"/></linearGradient><linearGradient id="L" x1="3579.05" x2="3363.41" y1="9656.32" y2="9450.6" gradientUnits="userSpaceOnUse"><stop stop-color="#FEBBBA"/><stop offset="1" stop-color="#FF928E"/></linearGradient><linearGradient id="M" x1="-5934.93" x2="-5796.35" y1="7486.06" y2="7486.06" gradientUnits="userSpaceOnUse"><stop stop-color="#FEBBBA"/><stop offset="1" stop-color="#FF928E"/></linearGradient><linearGradient id="N" x1="-141559" x2="-225897" y1="94762.3" y2="223625" gradientUnits="userSpaceOnUse"><stop stop-color="#09005D"/><stop offset="1" stop-color="#1A0F91"/></linearGradient><linearGradient id="O" x1="-18216.3" x2="-16327.9" y1="18882.3" y2="16185.8" gradientUnits="userSpaceOnUse"><stop stop-color="#09005D"/><stop offset="1" stop-color="#1A0F91"/></linearGradient><linearGradient id="P" x1="-20971.2" x2="-34639.8" y1="30801.9" y2="47455.4" gradientUnits="userSpaceOnUse"><stop stop-color="#FEBBBA"/><stop offset="1" stop-color="#FF928E"/></linearGradient><linearGradient id="Q" x1="150207" x2="166183" y1="63798.5" y2="109737" gradientUnits="userSpaceOnUse"><stop stop-color="#4F52FF"/><stop offset="1" stop-color="#4042E2"/></linearGradient><linearGradient id="R" x1="148347" x2="164323" y1="66128" y2="112066" gradientUnits="userSpaceOnUse"><stop stop-color="#4F52FF"/><stop offset="1" stop-color="#4042E2"/></linearGradient><linearGradient id="S" x1="-14788" x2="-14974.2" y1="4880.16" y2="5434.57" gradientUnits="userSpaceOnUse"><stop stop-color="#FEBBBA"/><stop offset="1" stop-color="#FF928E"/></linearGradient><linearGradient id="T" x1="445128" x2="339840" y1="-109034" y2="-10830" gradientUnits="userSpaceOnUse"><stop stop-color="#09005D"/><stop offset="1" stop-color="#1A0F91"/></linearGradient><linearGradient id="U" x1="-69966.8" x2="-75556.6" y1="-187763" y2="-184934" gradientUnits="userSpaceOnUse"><stop stop-color="#FF928E"/><stop offset="1" stop-color="#FE7062"/></linearGradient><linearGradient id="V" x1="-19996.5" x2="-23462.8" y1="-69587.3" y2="-61077.9" gradientUnits="userSpaceOnUse"><stop stop-color="#FF928E"/><stop offset="1" stop-color="#FE7062"/></linearGradient><linearGradient id="W" x1="7367.93" x2="5141.21" y1="20958.5" y2="14942" gradientUnits="userSpaceOnUse"><stop stop-color="#09005D"/><stop offset="1" stop-color="#1A0F91"/></linearGradient></defs></svg>